<mxfile host="app.diagrams.net" modified="2021-11-16T02:35:14.359Z" agent="5.0 (Macintosh; Intel Mac OS X 10_15_7) AppleWebKit/605.1.15 (KHTML, like Gecko) Version/14.1 Safari/605.1.15" etag="kAUtwdoBI8RRR_Me9ujw" version="15.7.3" type="github">
  <diagram id="Q9kf5YpWR1cGHmOKvQma" name="第 1 页">
    <mxGraphModel dx="1426" dy="736" grid="1" gridSize="10" guides="1" tooltips="1" connect="1" arrows="1" fold="1" page="1" pageScale="1" pageWidth="827" pageHeight="1169" math="0" shadow="0">
      <root>
        <mxCell id="0" />
        <mxCell id="1" parent="0" />
        <mxCell id="ngyoLXYZPM75yLtVWUrc-1" value="Icon" style="icon;html=1;image=img/clipart/Gear_128x128.png" vertex="1" parent="1">
          <mxGeometry x="130" y="140" width="160" height="140" as="geometry" />
        </mxCell>
      </root>
    </mxGraphModel>
  </diagram>
</mxfile>
